<!--
 * Copyright (c) 2024, WSO2 LLC. (https://www.wso2.com).
 *
 * WSO2 LLC. licenses this file to you under the Apache License,
 * Version 2.0 (the "License"); you may not use this file except
 * in compliance with the License.
 * You may obtain a copy of the License at
 *
 *     http://www.apache.org/licenses/LICENSE-2.0
 *
 * Unless required by applicable law or agreed to in writing,
 * software distributed under the License is distributed on an
 * "AS IS" BASIS, WITHOUT WARRANTIES OR CONDITIONS OF ANY
 * KIND, either express or implied. See the License for the
 * specific language governing permissions and limitations
 * under the License.
-->

<svg width="14" height="14" viewBox="0 0 14 14" fill="none" xmlns="http://www.w3.org/2000/svg">
<path d="M2.164 4.66809C1.7038 4.66809 1.33761 5.03428 1.33761 5.49448V8.93673C1.33761 9.39694 1.7038 9.76313 2.164 9.76313C2.6242 9.76313 2.99039 9.39694 2.99039 8.93673V5.49448C2.99039 5.03428 2.6242 4.66809 2.164 4.66809ZM11.8023 4.66809C11.3421 4.66809 10.9759 5.03428 10.9759 5.49448V8.93673C10.9759 9.39694 11.3421 9.76313 11.8023 9.76313C12.2625 9.76313 12.6287 9.39694 12.6287 8.93673V5.49448C12.6287 5.03428 12.2625 4.66809 11.8023 4.66809Z" fill="#A4C639"/>
<path d="M5.60622 8.59619C5.14602 8.59619 4.77983 8.96238 4.77983 9.42258V12.8648C4.77983 13.325 5.14602 13.6912 5.60622 13.6912C6.06643 13.6912 6.43262 13.325 6.43262 12.8648V9.42258C6.43262 8.96238 6.06643 8.59619 5.60622 8.59619ZM8.36002 8.59619C7.89982 8.59619 7.53363 8.96238 7.53363 9.42258V12.8648C7.53363 13.325 7.89982 13.6912 8.36002 13.6912C8.82023 13.6912 9.18642 13.325 9.18642 12.8648V9.42258C9.18642 8.96238 8.82023 8.59619 8.36002 8.59619Z" fill="#A4C639"/>
<path d="M4.69504 0.33106C4.6755 0.33126 4.6573 0.3363 4.63935 0.346247C4.58043 0.378911 4.56105 0.446627 4.5938 0.505704L5.17594 1.55736C4.05592 2.14014 3.29941 3.24765 3.29789 4.51871H10.6684C10.6668 3.24765 9.91032 2.14014 8.7903 1.55736L9.37245 0.505704C9.4052 0.446627 9.38582 0.378911 9.32689 0.346247C9.30895 0.3363 9.29074 0.331247 9.27121 0.33106C9.22939 0.330657 9.18975 0.351552 9.16743 0.391806L8.57769 1.45485C8.09526 1.24086 7.55415 1.12075 6.98312 1.12075C6.4121 1.12075 5.87098 1.24086 5.38855 1.45485L4.79881 0.391806C4.7765 0.351552 4.73686 0.330659 4.69504 0.33106ZM3.29789 4.80978V10.1516C3.29789 10.6452 3.69525 11.0425 4.18882 11.0425H9.77742C10.271 11.0425 10.6684 10.6452 10.6684 10.1516V4.80978H3.29789Z" fill="#A4C639"/>
<path d="M5.28224 2.55457C5.11399 2.55457 4.97472 2.69384 4.97472 2.86209C4.97472 3.03034 5.11399 3.16961 5.28224 3.16961C5.45049 3.16961 5.58977 3.03034 5.58977 2.86209C5.58977 2.69384 5.45049 2.55457 5.28224 2.55457ZM8.68399 2.55457C8.51574 2.55457 8.37647 2.69384 8.37647 2.86209C8.37647 3.03034 8.51574 3.16961 8.68399 3.16961C8.85225 3.16961 8.99152 3.03034 8.99152 2.86209C8.99152 2.69384 8.85225 2.55457 8.68399 2.55457Z" fill="white"/>
</svg>
