<!--
 * Copyright (c) 2024, WSO2 LLC. (https://www.wso2.com).
 *
 * WSO2 LLC. licenses this file to you under the Apache License,
 * Version 2.0 (the "License"); you may not use this file except
 * in compliance with the License.
 * You may obtain a copy of the License at
 *
 *     http://www.apache.org/licenses/LICENSE-2.0
 *
 * Unless required by applicable law or agreed to in writing,
 * software distributed under the License is distributed on an
 * "AS IS" BASIS, WITHOUT WARRANTIES OR CONDITIONS OF ANY
 * KIND, either express or implied. See the License for the
 * specific language governing permissions and limitations
 * under the License.
-->

<svg width="47" height="14" viewBox="0 0 47 14" fill="none" xmlns="http://www.w3.org/2000/svg">
<g clip-path="url(#clip0_11_157)">
<mask id="mask0_11_157" style="mask-type:luminance" maskUnits="userSpaceOnUse" x="0" y="0" width="14" height="14">
<path d="M14 0H0V14H14V0Z" fill="white"/>
</mask>
<g mask="url(#mask0_11_157)">
<path d="M12.6491 10.9102C12.4374 11.3994 12.1868 11.8496 11.8964 12.2635C11.5006 12.8278 11.1765 13.2184 10.9268 13.4354C10.5397 13.7914 10.1248 13.9737 9.68066 13.9841C9.36179 13.9841 8.97723 13.8934 8.52959 13.7093C8.08048 13.5261 7.66775 13.4354 7.29037 13.4354C6.89458 13.4354 6.4701 13.5261 6.01606 13.7093C5.56133 13.8934 5.19501 13.9893 4.91493 13.9988C4.48898 14.0169 4.06442 13.8294 3.64063 13.4354C3.37014 13.1994 3.03182 12.795 2.62652 12.2221C2.19167 11.6102 1.83416 10.9007 1.55409 10.0919C1.25413 9.2182 1.10377 8.37218 1.10377 7.55311C1.10377 6.61488 1.3065 5.80568 1.71258 5.12756C2.03171 4.58287 2.45628 4.15321 2.98766 3.83778C3.51904 3.52236 4.09319 3.36163 4.71151 3.35134C5.04983 3.35134 5.4935 3.45599 6.04484 3.66167C6.59462 3.86803 6.94764 3.97268 7.10241 3.97268C7.21812 3.97268 7.61028 3.85032 8.27509 3.60636C8.90377 3.38012 9.43438 3.28644 9.86905 3.32334C11.0469 3.4184 11.9318 3.88272 12.5203 4.71924C11.4669 5.35752 10.9458 6.2515 10.9562 7.39834C10.9657 8.29163 11.2898 9.03499 11.9266 9.62522C12.2153 9.89917 12.5376 10.1109 12.8962 10.2613C12.8185 10.4868 12.7364 10.7028 12.6491 10.9102ZM9.94769 0.28008C9.94769 0.980239 9.6919 1.63398 9.18204 2.23907C8.56675 2.9584 7.82252 3.37407 7.01547 3.30848C7.00519 3.22448 6.99923 3.13608 6.99923 3.04318C6.99923 2.37103 7.29184 1.65169 7.81146 1.06354C8.07089 0.765744 8.40083 0.518133 8.80094 0.320609C9.20019 0.126032 9.57783 0.0184269 9.933 0C9.94337 0.0936004 9.94769 0.187216 9.94769 0.28008Z" fill="#F6F6F7"/>
</g>
<path d="M42.5 3.84998H17.5C15.4842 3.84998 13.85 5.48414 13.85 7.49998C13.85 9.51581 15.4842 11.15 17.5 11.15H42.5C44.5158 11.15 46.15 9.51581 46.15 7.49998C46.15 5.48414 44.5158 3.84998 42.5 3.84998Z" stroke="url(#paint0_linear_11_157)" stroke-width="0.3"/>
<path d="M17.672 9.04805C17.456 9.04805 17.2547 9.01338 17.068 8.94405C16.884 8.87205 16.724 8.77072 16.588 8.64005C16.452 8.50938 16.3453 8.35605 16.268 8.18005C16.1933 8.00405 16.156 7.81072 16.156 7.60005C16.156 7.38938 16.1933 7.19605 16.268 7.02005C16.3453 6.84405 16.452 6.69072 16.588 6.56005C16.7267 6.42938 16.888 6.32938 17.072 6.26005C17.256 6.18805 17.4573 6.15205 17.676 6.15205C17.9187 6.15205 18.1373 6.19472 18.332 6.28005C18.5293 6.36272 18.6947 6.48538 18.828 6.64805L18.412 7.03205C18.316 6.92272 18.2093 6.84138 18.092 6.78805C17.9747 6.73205 17.8467 6.70405 17.708 6.70405C17.5773 6.70405 17.4573 6.72538 17.348 6.76805C17.2387 6.81072 17.144 6.87205 17.064 6.95205C16.984 7.03205 16.9213 7.12672 16.876 7.23605C16.8333 7.34538 16.812 7.46672 16.812 7.60005C16.812 7.73338 16.8333 7.85472 16.876 7.96405C16.9213 8.07338 16.984 8.16805 17.064 8.24805C17.144 8.32805 17.2387 8.38938 17.348 8.43205C17.4573 8.47472 17.5773 8.49605 17.708 8.49605C17.8467 8.49605 17.9747 8.46938 18.092 8.41605C18.2093 8.36005 18.316 8.27605 18.412 8.16405L18.828 8.54805C18.6947 8.71072 18.5293 8.83472 18.332 8.92005C18.1373 9.00538 17.9173 9.04805 17.672 9.04805ZM20.0514 9.03205C19.822 9.03205 19.618 8.98405 19.4394 8.88805C19.2634 8.79205 19.1234 8.66138 19.0194 8.49605C18.918 8.32805 18.8674 8.13738 18.8674 7.92405C18.8674 7.70805 18.918 7.51738 19.0194 7.35205C19.1234 7.18405 19.2634 7.05338 19.4394 6.96005C19.618 6.86405 19.822 6.81605 20.0514 6.81605C20.278 6.81605 20.4807 6.86405 20.6594 6.96005C20.838 7.05338 20.978 7.18272 21.0794 7.34805C21.1807 7.51338 21.2314 7.70538 21.2314 7.92405C21.2314 8.13738 21.1807 8.32805 21.0794 8.49605C20.978 8.66138 20.838 8.79205 20.6594 8.88805C20.4807 8.98405 20.278 9.03205 20.0514 9.03205ZM20.0514 8.52005C20.1554 8.52005 20.2487 8.49605 20.3314 8.44805C20.414 8.40005 20.4794 8.33205 20.5274 8.24405C20.5754 8.15338 20.5994 8.04672 20.5994 7.92405C20.5994 7.79872 20.5754 7.69205 20.5274 7.60405C20.4794 7.51605 20.414 7.44805 20.3314 7.40005C20.2487 7.35205 20.1554 7.32805 20.0514 7.32805C19.9474 7.32805 19.854 7.35205 19.7714 7.40005C19.6887 7.44805 19.622 7.51605 19.5714 7.60405C19.5234 7.69205 19.4994 7.79872 19.4994 7.92405C19.4994 8.04672 19.5234 8.15338 19.5714 8.24405C19.622 8.33205 19.6887 8.40005 19.7714 8.44805C19.854 8.49605 19.9474 8.52005 20.0514 8.52005ZM24.2845 6.81605C24.4551 6.81605 24.6058 6.85072 24.7365 6.92005C24.8698 6.98672 24.9738 7.09072 25.0485 7.23205C25.1258 7.37072 25.1645 7.54938 25.1645 7.76805V9.00005H24.5405V7.86405C24.5405 7.69072 24.5045 7.56272 24.4325 7.48005C24.3605 7.39738 24.2591 7.35605 24.1285 7.35605C24.0378 7.35605 23.9565 7.37738 23.8845 7.42005C23.8125 7.46005 23.7565 7.52138 23.7165 7.60405C23.6765 7.68672 23.6565 7.79205 23.6565 7.92005V9.00005H23.0325V7.86405C23.0325 7.69072 22.9965 7.56272 22.9245 7.48005C22.8551 7.39738 22.7551 7.35605 22.6245 7.35605C22.5338 7.35605 22.4525 7.37738 22.3805 7.42005C22.3085 7.46005 22.2525 7.52138 22.2125 7.60405C22.1725 7.68672 22.1525 7.79205 22.1525 7.92005V9.00005H21.5285V6.84805H22.1245V7.43605L22.0125 7.26405C22.0871 7.11738 22.1925 7.00672 22.3285 6.93205C22.4671 6.85472 22.6245 6.81605 22.8005 6.81605C22.9978 6.81605 23.1698 6.86672 23.3165 6.96805C23.4658 7.06672 23.5645 7.21872 23.6125 7.42405L23.3925 7.36405C23.4645 7.19605 23.5791 7.06272 23.7365 6.96405C23.8965 6.86538 24.0791 6.81605 24.2845 6.81605ZM25.6038 9.00005V6.84805H26.2278V9.00005H25.6038ZM25.9158 6.54805C25.8011 6.54805 25.7078 6.51472 25.6358 6.44805C25.5638 6.38138 25.5278 6.29872 25.5278 6.20005C25.5278 6.10138 25.5638 6.01872 25.6358 5.95205C25.7078 5.88538 25.8011 5.85205 25.9158 5.85205C26.0304 5.85205 26.1238 5.88405 26.1958 5.94805C26.2678 6.00938 26.3038 6.08938 26.3038 6.18805C26.3038 6.29205 26.2678 6.37872 26.1958 6.44805C26.1264 6.51472 26.0331 6.54805 25.9158 6.54805ZM27.9949 6.81605C28.1656 6.81605 28.3176 6.85072 28.4509 6.92005C28.5869 6.98672 28.6936 7.09072 28.7709 7.23205C28.8482 7.37072 28.8869 7.54938 28.8869 7.76805V9.00005H28.2629V7.86405C28.2629 7.69072 28.2242 7.56272 28.1469 7.48005C28.0722 7.39738 27.9656 7.35605 27.8269 7.35605C27.7282 7.35605 27.6389 7.37738 27.5589 7.42005C27.4816 7.46005 27.4202 7.52272 27.3749 7.60805C27.3322 7.69338 27.3109 7.80272 27.3109 7.93605V9.00005H26.6869V6.84805H27.2829V7.44405L27.1709 7.26405C27.2482 7.12005 27.3589 7.00938 27.5029 6.93205C27.6469 6.85472 27.8109 6.81605 27.9949 6.81605ZM30.3602 9.80805C30.1575 9.80805 29.9615 9.78272 29.7722 9.73205C29.5855 9.68405 29.4295 9.61072 29.3042 9.51205L29.5522 9.06405C29.6428 9.13872 29.7575 9.19738 29.8962 9.24005C30.0375 9.28538 30.1762 9.30805 30.3122 9.30805C30.5335 9.30805 30.6935 9.25872 30.7922 9.16005C30.8935 9.06138 30.9442 8.91472 30.9442 8.72005V8.39605L30.9842 7.85605L30.9762 7.31205V6.84805H31.5682V8.64005C31.5682 9.04005 31.4642 9.33472 31.2562 9.52405C31.0482 9.71338 30.7495 9.80805 30.3602 9.80805ZM30.2642 8.89605C30.0642 8.89605 29.8828 8.85338 29.7202 8.76805C29.5602 8.68005 29.4308 8.55872 29.3322 8.40405C29.2362 8.24672 29.1882 8.06405 29.1882 7.85605C29.1882 7.64538 29.2362 7.46272 29.3322 7.30805C29.4308 7.15072 29.5602 7.02938 29.7202 6.94405C29.8828 6.85872 30.0642 6.81605 30.2642 6.81605C30.4455 6.81605 30.6055 6.85338 30.7442 6.92805C30.8828 7.00005 30.9908 7.11338 31.0682 7.26805C31.1455 7.42005 31.1842 7.61605 31.1842 7.85605C31.1842 8.09338 31.1455 8.28938 31.0682 8.44405C30.9908 8.59605 30.8828 8.70938 30.7442 8.78405C30.6055 8.85872 30.4455 8.89605 30.2642 8.89605ZM30.3882 8.38405C30.4975 8.38405 30.5948 8.36272 30.6802 8.32005C30.7655 8.27472 30.8322 8.21205 30.8802 8.13205C30.9282 8.05205 30.9522 7.96005 30.9522 7.85605C30.9522 7.74938 30.9282 7.65738 30.8802 7.58005C30.8322 7.50005 30.7655 7.43872 30.6802 7.39605C30.5948 7.35072 30.4975 7.32805 30.3882 7.32805C30.2788 7.32805 30.1815 7.35072 30.0962 7.39605C30.0108 7.43872 29.9428 7.50005 29.8922 7.58005C29.8442 7.65738 29.8202 7.74938 29.8202 7.85605C29.8202 7.96005 29.8442 8.05205 29.8922 8.13205C29.9428 8.21205 30.0108 8.27472 30.0962 8.32005C30.1815 8.36272 30.2788 8.38405 30.3882 8.38405ZM34.0057 9.04805C33.7817 9.04805 33.5671 9.01872 33.3617 8.96005C33.1564 8.89872 32.9911 8.82005 32.8657 8.72405L33.0857 8.23605C33.2057 8.32138 33.3471 8.39205 33.5097 8.44805C33.6751 8.50138 33.8417 8.52805 34.0097 8.52805C34.1377 8.52805 34.2404 8.51605 34.3177 8.49205C34.3977 8.46538 34.4564 8.42938 34.4937 8.38405C34.5311 8.33872 34.5497 8.28672 34.5497 8.22805C34.5497 8.15338 34.5204 8.09472 34.4617 8.05205C34.4031 8.00672 34.3257 7.97072 34.2297 7.94405C34.1337 7.91472 34.0271 7.88805 33.9097 7.86405C33.7951 7.83738 33.6791 7.80538 33.5617 7.76805C33.4471 7.73072 33.3417 7.68272 33.2457 7.62405C33.1497 7.56538 33.0711 7.48805 33.0097 7.39205C32.9511 7.29605 32.9217 7.17338 32.9217 7.02405C32.9217 6.86405 32.9644 6.71872 33.0497 6.58805C33.1377 6.45472 33.2684 6.34938 33.4417 6.27205C33.6177 6.19205 33.8377 6.15205 34.1017 6.15205C34.2777 6.15205 34.4511 6.17338 34.6217 6.21605C34.7924 6.25605 34.9431 6.31738 35.0738 6.40005L34.8737 6.89205C34.7431 6.81738 34.6124 6.76272 34.4817 6.72805C34.3511 6.69072 34.2231 6.67205 34.0977 6.67205C33.9724 6.67205 33.8697 6.68672 33.7897 6.71605C33.7097 6.74538 33.6524 6.78405 33.6177 6.83205C33.5831 6.87738 33.5657 6.93072 33.5657 6.99205C33.5657 7.06405 33.5951 7.12272 33.6537 7.16805C33.7124 7.21072 33.7897 7.24538 33.8857 7.27205C33.9817 7.29872 34.0871 7.32538 34.2017 7.35205C34.3191 7.37872 34.4351 7.40938 34.5497 7.44405C34.6671 7.47872 34.7737 7.52538 34.8698 7.58405C34.9657 7.64272 35.0431 7.72005 35.1017 7.81605C35.1631 7.91205 35.1937 8.03338 35.1937 8.18005C35.1937 8.33738 35.1497 8.48138 35.0617 8.61205C34.9737 8.74272 34.8417 8.84805 34.6657 8.92805C34.4924 9.00805 34.2724 9.04805 34.0057 9.04805ZM36.4965 9.03205C36.2672 9.03205 36.0632 8.98405 35.8845 8.88805C35.7085 8.79205 35.5685 8.66138 35.4645 8.49605C35.3632 8.32805 35.3125 8.13738 35.3125 7.92405C35.3125 7.70805 35.3632 7.51738 35.4645 7.35205C35.5685 7.18405 35.7085 7.05338 35.8845 6.96005C36.0632 6.86405 36.2672 6.81605 36.4965 6.81605C36.7232 6.81605 36.9259 6.86405 37.1045 6.96005C37.2832 7.05338 37.4232 7.18272 37.5245 7.34805C37.6259 7.51338 37.6765 7.70538 37.6765 7.92405C37.6765 8.13738 37.6259 8.32805 37.5245 8.49605C37.4232 8.66138 37.2832 8.79205 37.1045 8.88805C36.9259 8.98405 36.7232 9.03205 36.4965 9.03205ZM36.4965 8.52005C36.6005 8.52005 36.6939 8.49605 36.7765 8.44805C36.8592 8.40005 36.9245 8.33205 36.9725 8.24405C37.0205 8.15338 37.0445 8.04672 37.0445 7.92405C37.0445 7.79872 37.0205 7.69205 36.9725 7.60405C36.9245 7.51605 36.8592 7.44805 36.7765 7.40005C36.6939 7.35205 36.6005 7.32805 36.4965 7.32805C36.3925 7.32805 36.2992 7.35205 36.2165 7.40005C36.1339 7.44805 36.0672 7.51605 36.0165 7.60405C35.9685 7.69205 35.9445 7.79872 35.9445 7.92405C35.9445 8.04672 35.9685 8.15338 36.0165 8.24405C36.0672 8.33205 36.1339 8.40005 36.2165 8.44805C36.2992 8.49605 36.3925 8.52005 36.4965 8.52005ZM38.9976 9.03205C38.7683 9.03205 38.5643 8.98405 38.3856 8.88805C38.2096 8.79205 38.0696 8.66138 37.9656 8.49605C37.8643 8.32805 37.8136 8.13738 37.8136 7.92405C37.8136 7.70805 37.8643 7.51738 37.9656 7.35205C38.0696 7.18405 38.2096 7.05338 38.3856 6.96005C38.5643 6.86405 38.7683 6.81605 38.9976 6.81605C39.2243 6.81605 39.427 6.86405 39.6056 6.96005C39.7843 7.05338 39.9243 7.18272 40.0256 7.34805C40.127 7.51338 40.1776 7.70538 40.1776 7.92405C40.1776 8.13738 40.127 8.32805 40.0256 8.49605C39.9243 8.66138 39.7843 8.79205 39.6056 8.88805C39.427 8.98405 39.2243 9.03205 38.9976 9.03205ZM38.9976 8.52005C39.1016 8.52005 39.195 8.49605 39.2776 8.44805C39.3603 8.40005 39.4256 8.33205 39.4736 8.24405C39.5216 8.15338 39.5456 8.04672 39.5456 7.92405C39.5456 7.79872 39.5216 7.69205 39.4736 7.60405C39.4256 7.51605 39.3603 7.44805 39.2776 7.40005C39.195 7.35205 39.1016 7.32805 38.9976 7.32805C38.8936 7.32805 38.8003 7.35205 38.7176 7.40005C38.635 7.44805 38.5683 7.51605 38.5176 7.60405C38.4696 7.69205 38.4456 7.79872 38.4456 7.92405C38.4456 8.04672 38.4696 8.15338 38.5176 8.24405C38.5683 8.33205 38.635 8.40005 38.7176 8.44805C38.8003 8.49605 38.8936 8.52005 38.9976 8.52005ZM41.7827 6.81605C41.9534 6.81605 42.1054 6.85072 42.2387 6.92005C42.3747 6.98672 42.4814 7.09072 42.5587 7.23205C42.6361 7.37072 42.6747 7.54938 42.6747 7.76805V9.00005H42.0507V7.86405C42.0507 7.69072 42.0121 7.56272 41.9347 7.48005C41.8601 7.39738 41.7534 7.35605 41.6147 7.35605C41.5161 7.35605 41.4267 7.37738 41.3467 7.42005C41.2694 7.46005 41.2081 7.52272 41.1627 7.60805C41.1201 7.69338 41.0987 7.80272 41.0987 7.93605V9.00005H40.4747V6.84805H41.0707V7.44405L40.9587 7.26405C41.0361 7.12005 41.1467 7.00938 41.2907 6.93205C41.4347 6.85472 41.5987 6.81605 41.7827 6.81605Z" fill="url(#paint1_linear_11_157)"/>
</g>
<defs>
<linearGradient id="paint0_linear_11_157" x1="14" y1="7.49997" x2="46" y2="7.49997" gradientUnits="userSpaceOnUse">
<stop stop-color="#EB4F63"/>
<stop offset="1" stop-color="#FA7B3F"/>
</linearGradient>
<linearGradient id="paint1_linear_11_157" x1="16" y1="7.50005" x2="43" y2="7.50005" gradientUnits="userSpaceOnUse">
<stop stop-color="#EB4F63"/>
<stop offset="1" stop-color="#FA7B3F"/>
</linearGradient>
<clipPath id="clip0_11_157">
<rect width="47" height="14" fill="white"/>
</clipPath>
</defs>
</svg>
