<!--
 * Copyright (c) 2024, WSO2 LLC. (https://www.wso2.com).
 *
 * WSO2 LLC. licenses this file to you under the Apache License,
 * Version 2.0 (the "License"); you may not use this file except
 * in compliance with the License.
 * You may obtain a copy of the License at
 *
 *     http://www.apache.org/licenses/LICENSE-2.0
 *
 * Unless required by applicable law or agreed to in writing,
 * software distributed under the License is distributed on an
 * "AS IS" BASIS, WITHOUT WARRANTIES OR CONDITIONS OF ANY
 * KIND, either express or implied. See the License for the
 * specific language governing permissions and limitations
 * under the License.
-->

<svg width="47" height="14" viewBox="0 0 47 14" fill="none" xmlns="http://www.w3.org/2000/svg">
<g clip-path="url(#clip0_4_87)">
<path d="M12.6491 10.9102C12.4374 11.3994 12.1868 11.8496 11.8964 12.2635C11.5006 12.8278 11.1765 13.2184 10.9268 13.4354C10.5397 13.7914 10.1248 13.9737 9.68066 13.9841C9.36179 13.9841 8.97723 13.8934 8.52959 13.7093C8.08048 13.5261 7.66775 13.4354 7.29037 13.4354C6.89458 13.4354 6.4701 13.5261 6.01606 13.7093C5.56133 13.8934 5.19501 13.9893 4.91493 13.9988C4.48898 14.0169 4.06442 13.8294 3.64063 13.4354C3.37014 13.1994 3.03182 12.795 2.62652 12.2221C2.19167 11.6102 1.83416 10.9007 1.55409 10.0919C1.25413 9.2182 1.10377 8.37218 1.10377 7.55311C1.10377 6.61488 1.3065 5.80568 1.71258 5.12756C2.03171 4.58287 2.45628 4.15321 2.98766 3.83778C3.51904 3.52236 4.09319 3.36163 4.71151 3.35134C5.04983 3.35134 5.4935 3.45599 6.04484 3.66167C6.59462 3.86803 6.94764 3.97268 7.10241 3.97268C7.21812 3.97268 7.61028 3.85032 8.27509 3.60636C8.90377 3.38012 9.43438 3.28644 9.86905 3.32334C11.0469 3.4184 11.9318 3.88272 12.5203 4.71924C11.4669 5.35752 10.9458 6.2515 10.9562 7.39834C10.9657 8.29163 11.2898 9.03499 11.9266 9.62522C12.2153 9.89917 12.5376 10.1109 12.8962 10.2613C12.8185 10.4868 12.7364 10.7028 12.6491 10.9102ZM9.94769 0.28008C9.94769 0.980239 9.6919 1.63398 9.18204 2.23907C8.56675 2.9584 7.82252 3.37407 7.01547 3.30848C7.00519 3.22448 6.99923 3.13608 6.99923 3.04318C6.99923 2.37103 7.29184 1.65169 7.81146 1.06354C8.07089 0.765744 8.40083 0.518133 8.80094 0.320609C9.20019 0.126032 9.57783 0.0184269 9.933 0C9.94337 0.0936004 9.94769 0.187216 9.94769 0.28008Z" fill="#656565"/>
</g>
<rect x="13.85" y="3.85" width="32.3" height="7.3" rx="3.65" stroke="url(#paint0_linear_4_87)" stroke-width="0.3"/>
<path d="M17.672 9.048C17.456 9.048 17.2547 9.01333 17.068 8.944C16.884 8.872 16.724 8.77067 16.588 8.64C16.452 8.50933 16.3453 8.356 16.268 8.18C16.1933 8.004 16.156 7.81067 16.156 7.6C16.156 7.38933 16.1933 7.196 16.268 7.02C16.3453 6.844 16.452 6.69067 16.588 6.56C16.7267 6.42933 16.888 6.32933 17.072 6.26C17.256 6.188 17.4573 6.152 17.676 6.152C17.9187 6.152 18.1373 6.19467 18.332 6.28C18.5293 6.36267 18.6947 6.48533 18.828 6.648L18.412 7.032C18.316 6.92267 18.2093 6.84133 18.092 6.788C17.9747 6.732 17.8467 6.704 17.708 6.704C17.5773 6.704 17.4573 6.72533 17.348 6.768C17.2387 6.81067 17.144 6.872 17.064 6.952C16.984 7.032 16.9213 7.12667 16.876 7.236C16.8333 7.34533 16.812 7.46667 16.812 7.6C16.812 7.73333 16.8333 7.85467 16.876 7.964C16.9213 8.07333 16.984 8.168 17.064 8.248C17.144 8.328 17.2387 8.38933 17.348 8.432C17.4573 8.47467 17.5773 8.496 17.708 8.496C17.8467 8.496 17.9747 8.46933 18.092 8.416C18.2093 8.36 18.316 8.276 18.412 8.164L18.828 8.548C18.6947 8.71067 18.5293 8.83467 18.332 8.92C18.1373 9.00533 17.9173 9.048 17.672 9.048ZM20.0514 9.032C19.822 9.032 19.618 8.984 19.4394 8.888C19.2634 8.792 19.1234 8.66133 19.0194 8.496C18.918 8.328 18.8674 8.13733 18.8674 7.924C18.8674 7.708 18.918 7.51733 19.0194 7.352C19.1234 7.184 19.2634 7.05333 19.4394 6.96C19.618 6.864 19.822 6.816 20.0514 6.816C20.278 6.816 20.4807 6.864 20.6594 6.96C20.838 7.05333 20.978 7.18267 21.0794 7.348C21.1807 7.51333 21.2314 7.70533 21.2314 7.924C21.2314 8.13733 21.1807 8.328 21.0794 8.496C20.978 8.66133 20.838 8.792 20.6594 8.888C20.4807 8.984 20.278 9.032 20.0514 9.032ZM20.0514 8.52C20.1554 8.52 20.2487 8.496 20.3314 8.448C20.414 8.4 20.4794 8.332 20.5274 8.244C20.5754 8.15333 20.5994 8.04667 20.5994 7.924C20.5994 7.79867 20.5754 7.692 20.5274 7.604C20.4794 7.516 20.414 7.448 20.3314 7.4C20.2487 7.352 20.1554 7.328 20.0514 7.328C19.9474 7.328 19.854 7.352 19.7714 7.4C19.6887 7.448 19.622 7.516 19.5714 7.604C19.5234 7.692 19.4994 7.79867 19.4994 7.924C19.4994 8.04667 19.5234 8.15333 19.5714 8.244C19.622 8.332 19.6887 8.4 19.7714 8.448C19.854 8.496 19.9474 8.52 20.0514 8.52ZM24.2845 6.816C24.4551 6.816 24.6058 6.85067 24.7365 6.92C24.8698 6.98667 24.9738 7.09067 25.0485 7.232C25.1258 7.37067 25.1645 7.54933 25.1645 7.768V9H24.5405V7.864C24.5405 7.69067 24.5045 7.56267 24.4325 7.48C24.3605 7.39733 24.2591 7.356 24.1285 7.356C24.0378 7.356 23.9565 7.37733 23.8845 7.42C23.8125 7.46 23.7565 7.52133 23.7165 7.604C23.6765 7.68667 23.6565 7.792 23.6565 7.92V9H23.0325V7.864C23.0325 7.69067 22.9965 7.56267 22.9245 7.48C22.8551 7.39733 22.7551 7.356 22.6245 7.356C22.5338 7.356 22.4525 7.37733 22.3805 7.42C22.3085 7.46 22.2525 7.52133 22.2125 7.604C22.1725 7.68667 22.1525 7.792 22.1525 7.92V9H21.5285V6.848H22.1245V7.436L22.0125 7.264C22.0871 7.11733 22.1925 7.00667 22.3285 6.932C22.4671 6.85467 22.6245 6.816 22.8005 6.816C22.9978 6.816 23.1698 6.86667 23.3165 6.968C23.4658 7.06667 23.5645 7.21867 23.6125 7.424L23.3925 7.364C23.4645 7.196 23.5791 7.06267 23.7365 6.964C23.8965 6.86533 24.0791 6.816 24.2845 6.816ZM25.6038 9V6.848H26.2278V9H25.6038ZM25.9158 6.548C25.8011 6.548 25.7078 6.51467 25.6358 6.448C25.5638 6.38133 25.5278 6.29867 25.5278 6.2C25.5278 6.10133 25.5638 6.01867 25.6358 5.952C25.7078 5.88533 25.8011 5.852 25.9158 5.852C26.0304 5.852 26.1238 5.884 26.1958 5.948C26.2678 6.00933 26.3038 6.08933 26.3038 6.188C26.3038 6.292 26.2678 6.37867 26.1958 6.448C26.1264 6.51467 26.0331 6.548 25.9158 6.548ZM27.9949 6.816C28.1656 6.816 28.3176 6.85067 28.4509 6.92C28.5869 6.98667 28.6936 7.09067 28.7709 7.232C28.8482 7.37067 28.8869 7.54933 28.8869 7.768V9H28.2629V7.864C28.2629 7.69067 28.2242 7.56267 28.1469 7.48C28.0722 7.39733 27.9656 7.356 27.8269 7.356C27.7282 7.356 27.6389 7.37733 27.5589 7.42C27.4816 7.46 27.4202 7.52267 27.3749 7.608C27.3322 7.69333 27.3109 7.80267 27.3109 7.936V9H26.6869V6.848H27.2829V7.444L27.1709 7.264C27.2482 7.12 27.3589 7.00933 27.5029 6.932C27.6469 6.85467 27.8109 6.816 27.9949 6.816ZM30.3602 9.808C30.1575 9.808 29.9615 9.78267 29.7722 9.732C29.5855 9.684 29.4295 9.61067 29.3042 9.512L29.5522 9.064C29.6428 9.13867 29.7575 9.19733 29.8962 9.24C30.0375 9.28533 30.1762 9.308 30.3122 9.308C30.5335 9.308 30.6935 9.25867 30.7922 9.16C30.8935 9.06133 30.9442 8.91467 30.9442 8.72V8.396L30.9842 7.856L30.9762 7.312V6.848H31.5682V8.64C31.5682 9.04 31.4642 9.33467 31.2562 9.524C31.0482 9.71333 30.7495 9.808 30.3602 9.808ZM30.2642 8.896C30.0642 8.896 29.8828 8.85333 29.7202 8.768C29.5602 8.68 29.4308 8.55867 29.3322 8.404C29.2362 8.24667 29.1882 8.064 29.1882 7.856C29.1882 7.64533 29.2362 7.46267 29.3322 7.308C29.4308 7.15067 29.5602 7.02933 29.7202 6.944C29.8828 6.85867 30.0642 6.816 30.2642 6.816C30.4455 6.816 30.6055 6.85333 30.7442 6.928C30.8828 7 30.9908 7.11333 31.0682 7.268C31.1455 7.42 31.1842 7.616 31.1842 7.856C31.1842 8.09333 31.1455 8.28933 31.0682 8.444C30.9908 8.596 30.8828 8.70933 30.7442 8.784C30.6055 8.85867 30.4455 8.896 30.2642 8.896ZM30.3882 8.384C30.4975 8.384 30.5948 8.36267 30.6802 8.32C30.7655 8.27467 30.8322 8.212 30.8802 8.132C30.9282 8.052 30.9522 7.96 30.9522 7.856C30.9522 7.74933 30.9282 7.65733 30.8802 7.58C30.8322 7.5 30.7655 7.43867 30.6802 7.396C30.5948 7.35067 30.4975 7.328 30.3882 7.328C30.2788 7.328 30.1815 7.35067 30.0962 7.396C30.0108 7.43867 29.9428 7.5 29.8922 7.58C29.8442 7.65733 29.8202 7.74933 29.8202 7.856C29.8202 7.96 29.8442 8.052 29.8922 8.132C29.9428 8.212 30.0108 8.27467 30.0962 8.32C30.1815 8.36267 30.2788 8.384 30.3882 8.384ZM34.0057 9.048C33.7817 9.048 33.5671 9.01867 33.3617 8.96C33.1564 8.89867 32.9911 8.82 32.8657 8.724L33.0857 8.236C33.2057 8.32133 33.3471 8.392 33.5097 8.448C33.6751 8.50133 33.8417 8.528 34.0097 8.528C34.1377 8.528 34.2404 8.516 34.3177 8.492C34.3977 8.46533 34.4564 8.42933 34.4937 8.384C34.5311 8.33867 34.5497 8.28667 34.5497 8.228C34.5497 8.15333 34.5204 8.09467 34.4617 8.052C34.4031 8.00667 34.3257 7.97067 34.2297 7.944C34.1337 7.91467 34.0271 7.888 33.9097 7.864C33.7951 7.83733 33.6791 7.80533 33.5617 7.768C33.4471 7.73067 33.3417 7.68267 33.2457 7.624C33.1497 7.56533 33.0711 7.488 33.0097 7.392C32.9511 7.296 32.9217 7.17333 32.9217 7.024C32.9217 6.864 32.9644 6.71867 33.0497 6.588C33.1377 6.45467 33.2684 6.34933 33.4417 6.272C33.6177 6.192 33.8377 6.152 34.1017 6.152C34.2777 6.152 34.4511 6.17333 34.6217 6.216C34.7924 6.256 34.9431 6.31733 35.0738 6.4L34.8737 6.892C34.7431 6.81733 34.6124 6.76267 34.4817 6.728C34.3511 6.69067 34.2231 6.672 34.0977 6.672C33.9724 6.672 33.8697 6.68667 33.7897 6.716C33.7097 6.74533 33.6524 6.784 33.6177 6.832C33.5831 6.87733 33.5657 6.93067 33.5657 6.992C33.5657 7.064 33.5951 7.12267 33.6537 7.168C33.7124 7.21067 33.7897 7.24533 33.8857 7.272C33.9817 7.29867 34.0871 7.32533 34.2017 7.352C34.3191 7.37867 34.4351 7.40933 34.5497 7.444C34.6671 7.47867 34.7737 7.52533 34.8698 7.584C34.9657 7.64267 35.0431 7.72 35.1017 7.816C35.1631 7.912 35.1937 8.03333 35.1937 8.18C35.1937 8.33733 35.1497 8.48133 35.0617 8.612C34.9737 8.74267 34.8417 8.848 34.6657 8.928C34.4924 9.008 34.2724 9.048 34.0057 9.048ZM36.4965 9.032C36.2672 9.032 36.0632 8.984 35.8845 8.888C35.7085 8.792 35.5685 8.66133 35.4645 8.496C35.3632 8.328 35.3125 8.13733 35.3125 7.924C35.3125 7.708 35.3632 7.51733 35.4645 7.352C35.5685 7.184 35.7085 7.05333 35.8845 6.96C36.0632 6.864 36.2672 6.816 36.4965 6.816C36.7232 6.816 36.9259 6.864 37.1045 6.96C37.2832 7.05333 37.4232 7.18267 37.5245 7.348C37.6259 7.51333 37.6765 7.70533 37.6765 7.924C37.6765 8.13733 37.6259 8.328 37.5245 8.496C37.4232 8.66133 37.2832 8.792 37.1045 8.888C36.9259 8.984 36.7232 9.032 36.4965 9.032ZM36.4965 8.52C36.6005 8.52 36.6939 8.496 36.7765 8.448C36.8592 8.4 36.9245 8.332 36.9725 8.244C37.0205 8.15333 37.0445 8.04667 37.0445 7.924C37.0445 7.79867 37.0205 7.692 36.9725 7.604C36.9245 7.516 36.8592 7.448 36.7765 7.4C36.6939 7.352 36.6005 7.328 36.4965 7.328C36.3925 7.328 36.2992 7.352 36.2165 7.4C36.1339 7.448 36.0672 7.516 36.0165 7.604C35.9685 7.692 35.9445 7.79867 35.9445 7.924C35.9445 8.04667 35.9685 8.15333 36.0165 8.244C36.0672 8.332 36.1339 8.4 36.2165 8.448C36.2992 8.496 36.3925 8.52 36.4965 8.52ZM38.9976 9.032C38.7683 9.032 38.5643 8.984 38.3856 8.888C38.2096 8.792 38.0696 8.66133 37.9656 8.496C37.8643 8.328 37.8136 8.13733 37.8136 7.924C37.8136 7.708 37.8643 7.51733 37.9656 7.352C38.0696 7.184 38.2096 7.05333 38.3856 6.96C38.5643 6.864 38.7683 6.816 38.9976 6.816C39.2243 6.816 39.427 6.864 39.6056 6.96C39.7843 7.05333 39.9243 7.18267 40.0256 7.348C40.127 7.51333 40.1776 7.70533 40.1776 7.924C40.1776 8.13733 40.127 8.328 40.0256 8.496C39.9243 8.66133 39.7843 8.792 39.6056 8.888C39.427 8.984 39.2243 9.032 38.9976 9.032ZM38.9976 8.52C39.1016 8.52 39.195 8.496 39.2776 8.448C39.3603 8.4 39.4256 8.332 39.4736 8.244C39.5216 8.15333 39.5456 8.04667 39.5456 7.924C39.5456 7.79867 39.5216 7.692 39.4736 7.604C39.4256 7.516 39.3603 7.448 39.2776 7.4C39.195 7.352 39.1016 7.328 38.9976 7.328C38.8936 7.328 38.8003 7.352 38.7176 7.4C38.635 7.448 38.5683 7.516 38.5176 7.604C38.4696 7.692 38.4456 7.79867 38.4456 7.924C38.4456 8.04667 38.4696 8.15333 38.5176 8.244C38.5683 8.332 38.635 8.4 38.7176 8.448C38.8003 8.496 38.8936 8.52 38.9976 8.52ZM41.7827 6.816C41.9534 6.816 42.1054 6.85067 42.2387 6.92C42.3747 6.98667 42.4814 7.09067 42.5587 7.232C42.6361 7.37067 42.6747 7.54933 42.6747 7.768V9H42.0507V7.864C42.0507 7.69067 42.0121 7.56267 41.9347 7.48C41.8601 7.39733 41.7534 7.356 41.6147 7.356C41.5161 7.356 41.4267 7.37733 41.3467 7.42C41.2694 7.46 41.2081 7.52267 41.1627 7.608C41.1201 7.69333 41.0987 7.80267 41.0987 7.936V9H40.4747V6.848H41.0707V7.444L40.9587 7.264C41.0361 7.12 41.1467 7.00933 41.2907 6.932C41.4347 6.85467 41.5987 6.816 41.7827 6.816Z" fill="url(#paint1_linear_4_87)"/>
<defs>
<linearGradient id="paint0_linear_4_87" x1="14" y1="7.5" x2="46" y2="7.5" gradientUnits="userSpaceOnUse">
<stop stop-color="#EB4F63"/>
<stop offset="1" stop-color="#FA7B3F"/>
</linearGradient>
<linearGradient id="paint1_linear_4_87" x1="16" y1="7.5" x2="43" y2="7.5" gradientUnits="userSpaceOnUse">
<stop stop-color="#EB4F63"/>
<stop offset="1" stop-color="#FA7B3F"/>
</linearGradient>
<clipPath id="clip0_4_87">
<rect width="14" height="14" fill="white"/>
</clipPath>
</defs>
</svg>
